<?xml version="1.0" standalone="no"?>
<!DOCTYPE svg PUBLIC "-//W3C//DTD SVG 20010904//EN"
 "http://www.w3.org/TR/2001/REC-SVG-20010904/DTD/svg10.dtd">
<svg version="1.0" xmlns="http://www.w3.org/2000/svg"
 width="300.000000pt" height="131.000000pt" viewBox="0 0 300.000000 131.000000"
 preserveAspectRatio="xMidYMid meet">
<metadata>
Created by potrace 1.14, written by Peter Selinger 2001-2017
</metadata>
<g transform="translate(0.000000,131.000000) scale(0.100000,-0.100000)"
fill="#000000" stroke="none">
<path d="M1114 1300 c-72 -10 -134 -39 -162 -75 -30 -38 -42 -110 -42 -250 l0
-125 160 0 159 0 3 113 3 112 45 0 45 0 3 -133 c3 -155 10 -147 -115 -147
l-83 0 0 -112 0 -112 98 -3 97 -3 0 -165 0 -165 -45 0 -45 0 -5 133 -5 133
-160 0 -160 0 0 -178 c0 -208 10 -241 80 -280 58 -31 200 -47 365 -39 154 6
224 23 262 63 44 46 50 89 46 313 -3 179 -5 210 -21 234 -21 31 -87 65 -132
67 -28 1 -28 2 9 10 127 30 136 50 136 292 0 107 -5 198 -11 214 -30 81 -94
103 -309 108 -85 2 -183 0 -216 -5z"/>
<path d="M2 659 l3 -644 210 -3 c372 -5 483 17 525 103 20 41 21 57 18 264
l-3 221 -30 29 c-19 19 -50 35 -84 44 l-55 14 39 7 c115 22 134 62 135 276 0
170 -8 214 -46 260 -46 54 -95 62 -422 67 l-292 5 2 -643z m433 266 l0 -140
-57 -3 -58 -3 0 146 0 146 58 -3 57 -3 0 -140z m0 -515 l0 -165 -57 -3 -58 -3
0 171 0 171 58 -3 57 -3 0 -165z"/>
<path d="M1820 645 l0 -635 165 0 165 0 0 635 0 635 -165 0 -165 0 0 -635z"/>
<path d="M2230 1155 l0 -125 95 0 95 0 0 -510 0 -510 160 0 160 0 2 507 3 508
93 3 92 3 0 124 0 125 -350 0 -350 0 0 -125z"/>
</g>
</svg>
